<?xml version="1.0" encoding="UTF-8"?>
<svg width="200" height="200" viewBox="0 0 200 200" fill="none" xmlns="http://www.w3.org/2000/svg">
  <defs>
    <linearGradient id="goldGradient" x1="0%" y1="0%" x2="100%" y2="100%">
      <stop offset="0%" style="stop-color:#c6a255"/>
      <stop offset="50%" style="stop-color:#e9d5a1"/>
      <stop offset="100%" style="stop-color:#c6a255"/>
    </linearGradient>
  </defs>
  
  <!-- Main Globe Shape -->
  <path d="M100 190c49.706 0 90-40.294 90-90S149.706 10 100 10 10 50.294 10 100s40.294 90 90 90z" fill="url(#goldGradient)" opacity="0.9"/>
  
  <!-- Continents -->
  <path d="M70 50c20-15 40-10 60 0s30 30 20 50-30 20-50 30-40 0-50-20 0-45 20-60z" fill="black"/>
  <path d="M130 80c10 20 0 40-20 50s-40 0-50-20 0-40 20-50 40 0 50 20z" fill="black"/>
</svg>
